<svg width="50" height="44" viewBox="0 0 50 44" fill="none" xmlns="http://www.w3.org/2000/svg">
<path d="M24.9 0C14.6287 0 6.225 8.40375 6.225 18.675V24.9H3.1125C2.28701 24.9 1.49534 25.2279 0.91163 25.8116C0.327923 26.3953 0 27.187 0 28.0125L0 40.4625C0 41.288 0.327923 42.0797 0.91163 42.6634C1.49534 43.2471 2.28701 43.575 3.1125 43.575H9.3375C10.163 43.575 10.9547 43.2471 11.5384 42.6634C12.1221 42.0797 12.45 41.288 12.45 40.4625V18.675C12.45 11.7653 17.9902 6.225 24.9 6.225C31.8097 6.225 37.35 11.7653 37.35 18.675V40.4625C37.35 41.288 37.6779 42.0797 38.2616 42.6634C38.8453 43.2471 39.637 43.575 40.4625 43.575H46.6875C47.513 43.575 48.3047 43.2471 48.8884 42.6634C49.4721 42.0797 49.8 41.288 49.8 40.4625V28.0125C49.8 27.187 49.4721 26.3953 48.8884 25.8116C48.3047 25.2279 47.513 24.9 46.6875 24.9H43.575V18.675C43.575 8.40375 35.1712 0 24.9 0Z" fill="#EA580C"/>
</svg>
