<svg width="260" height="80" viewBox="0 0 260 80" fill="none" xmlns="http://www.w3.org/2000/svg">
<path d="M93.792 32.176C96.288 32.176 98.2 32.624 99.528 33.52C100.856 34.4 101.52 35.776 101.52 37.648C101.52 38.816 101.248 39.768 100.704 40.504C100.176 41.224 99.408 41.792 98.4 42.208C98.736 42.624 99.088 43.104 99.456 43.648C99.824 44.176 100.184 44.736 100.536 45.328C100.904 45.904 101.256 46.512 101.592 47.152C101.928 47.776 102.24 48.392 102.528 49H98.328C98.024 48.456 97.712 47.904 97.392 47.344C97.088 46.784 96.768 46.24 96.432 45.712C96.112 45.184 95.792 44.688 95.472 44.224C95.152 43.744 94.832 43.312 94.512 42.928H92.664V49H88.92V32.608C89.736 32.448 90.576 32.336 91.44 32.272C92.32 32.208 93.104 32.176 93.792 32.176ZM94.008 35.368C93.736 35.368 93.488 35.376 93.264 35.392C93.056 35.408 92.856 35.424 92.664 35.44V39.952H93.72C95.128 39.952 96.136 39.776 96.744 39.424C97.352 39.072 97.656 38.472 97.656 37.624C97.656 36.808 97.344 36.232 96.72 35.896C96.112 35.544 95.208 35.368 94.008 35.368ZM115.886 42.664C115.886 43.656 115.742 44.568 115.454 45.4C115.166 46.216 114.75 46.92 114.206 47.512C113.662 48.088 113.006 48.536 112.238 48.856C111.486 49.176 110.638 49.336 109.694 49.336C108.766 49.336 107.918 49.176 107.15 48.856C106.398 48.536 105.75 48.088 105.206 47.512C104.662 46.92 104.238 46.216 103.934 45.4C103.63 44.568 103.478 43.656 103.478 42.664C103.478 41.672 103.63 40.768 103.934 39.952C104.254 39.136 104.686 38.44 105.23 37.864C105.79 37.288 106.446 36.84 107.198 36.52C107.966 36.2 108.798 36.04 109.694 36.04C110.606 36.04 111.438 36.2 112.19 36.52C112.958 36.84 113.614 37.288 114.158 37.864C114.702 38.44 115.126 39.136 115.43 39.952C115.734 40.768 115.886 41.672 115.886 42.664ZM112.238 42.664C112.238 41.56 112.014 40.696 111.566 40.072C111.134 39.432 110.51 39.112 109.694 39.112C108.878 39.112 108.246 39.432 107.798 40.072C107.35 40.696 107.126 41.56 107.126 42.664C107.126 43.768 107.35 44.648 107.798 45.304C108.246 45.944 108.878 46.264 109.694 46.264C110.51 46.264 111.134 45.944 111.566 45.304C112.014 44.648 112.238 43.768 112.238 42.664ZM118.057 42.688C118.057 41.776 118.201 40.92 118.489 40.12C118.793 39.304 119.225 38.6 119.785 38.008C120.345 37.4 121.025 36.92 121.825 36.568C122.625 36.216 123.537 36.04 124.561 36.04C125.233 36.04 125.849 36.104 126.409 36.232C126.969 36.344 127.513 36.512 128.041 36.736L127.297 39.592C126.961 39.464 126.593 39.352 126.193 39.256C125.793 39.16 125.345 39.112 124.849 39.112C123.793 39.112 123.001 39.44 122.473 40.096C121.961 40.752 121.705 41.616 121.705 42.688C121.705 43.824 121.945 44.704 122.425 45.328C122.921 45.952 123.777 46.264 124.993 46.264C125.425 46.264 125.889 46.224 126.385 46.144C126.881 46.064 127.337 45.936 127.753 45.76L128.257 48.688C127.841 48.864 127.321 49.016 126.697 49.144C126.073 49.272 125.385 49.336 124.633 49.336C123.481 49.336 122.489 49.168 121.657 48.832C120.825 48.48 120.137 48.008 119.593 47.416C119.065 46.824 118.673 46.128 118.417 45.328C118.177 44.512 118.057 43.632 118.057 42.688ZM134.233 40.936C134.585 40.552 134.945 40.152 135.313 39.736C135.697 39.32 136.065 38.912 136.417 38.512C136.769 38.096 137.097 37.704 137.401 37.336C137.721 36.968 137.993 36.648 138.217 36.376H142.465C141.617 37.352 140.785 38.288 139.969 39.184C139.169 40.064 138.289 40.976 137.329 41.92C137.809 42.352 138.305 42.872 138.817 43.48C139.329 44.072 139.825 44.688 140.305 45.328C140.785 45.968 141.225 46.608 141.625 47.248C142.025 47.888 142.361 48.472 142.633 49H138.529C138.273 48.584 137.977 48.128 137.641 47.632C137.321 47.12 136.977 46.616 136.609 46.12C136.241 45.608 135.849 45.12 135.433 44.656C135.033 44.192 134.633 43.8 134.233 43.48V49H130.657V30.952L134.233 30.376V40.936ZM143.088 42.784C143.088 41.664 143.256 40.688 143.592 39.856C143.944 39.008 144.4 38.304 144.96 37.744C145.52 37.184 146.16 36.76 146.88 36.472C147.616 36.184 148.368 36.04 149.136 36.04C150.928 36.04 152.344 36.592 153.384 37.696C154.424 38.784 154.944 40.392 154.944 42.52C154.944 42.728 154.936 42.96 154.92 43.216C154.904 43.456 154.888 43.672 154.872 43.864H146.76C146.84 44.6 147.184 45.184 147.792 45.616C148.4 46.048 149.216 46.264 150.24 46.264C150.896 46.264 151.536 46.208 152.16 46.096C152.8 45.968 153.32 45.816 153.72 45.64L154.2 48.544C154.008 48.64 153.752 48.736 153.432 48.832C153.112 48.928 152.752 49.008 152.352 49.072C151.968 49.152 151.552 49.216 151.104 49.264C150.656 49.312 150.208 49.336 149.76 49.336C148.624 49.336 147.632 49.168 146.784 48.832C145.952 48.496 145.256 48.04 144.696 47.464C144.152 46.872 143.744 46.176 143.472 45.376C143.216 44.576 143.088 43.712 143.088 42.784ZM151.488 41.416C151.472 41.112 151.416 40.816 151.32 40.528C151.24 40.24 151.104 39.984 150.912 39.76C150.736 39.536 150.504 39.352 150.216 39.208C149.944 39.064 149.6 38.992 149.184 38.992C148.784 38.992 148.44 39.064 148.152 39.208C147.864 39.336 147.624 39.512 147.432 39.736C147.24 39.96 147.088 40.224 146.976 40.528C146.88 40.816 146.808 41.112 146.76 41.416H151.488ZM165.311 39.544C164.991 39.464 164.615 39.384 164.183 39.304C163.751 39.208 163.287 39.16 162.791 39.16C162.567 39.16 162.295 39.184 161.975 39.232C161.671 39.264 161.439 39.304 161.279 39.352V49H157.703V37.048C158.343 36.824 159.095 36.616 159.959 36.424C160.839 36.216 161.815 36.112 162.887 36.112C163.079 36.112 163.311 36.128 163.583 36.16C163.855 36.176 164.127 36.208 164.399 36.256C164.671 36.288 164.943 36.336 165.215 36.4C165.487 36.448 165.719 36.512 165.911 36.592L165.311 39.544ZM177.543 38.776C177.255 39.096 176.863 39.528 176.367 40.072C175.887 40.616 175.367 41.216 174.807 41.872C174.247 42.528 173.679 43.216 173.103 43.936C172.543 44.656 172.031 45.352 171.567 46.024H177.663V49H167.223V46.888C167.559 46.312 167.959 45.696 168.423 45.04C168.903 44.368 169.399 43.696 169.911 43.024C170.439 42.352 170.959 41.704 171.471 41.08C171.983 40.44 172.455 39.864 172.887 39.352H167.511V36.376H177.543V38.776ZM197.228 34.144C197.42 34.8 197.628 35.544 197.852 36.376C198.092 37.192 198.34 38.04 198.596 38.92C198.868 39.8 199.14 40.68 199.412 41.56C199.684 42.44 199.948 43.256 200.204 44.008C200.412 43.192 200.62 42.304 200.828 41.344C201.052 40.384 201.26 39.392 201.452 38.368C201.644 37.344 201.828 36.328 202.004 35.32C202.196 34.296 202.372 33.312 202.532 32.368H206.42C205.86 35.152 205.212 37.976 204.476 40.84C203.756 43.704 202.972 46.424 202.124 49H198.692C198.132 47.464 197.588 45.856 197.06 44.176C196.532 42.48 196.012 40.784 195.5 39.088C194.988 40.784 194.476 42.48 193.964 44.176C193.452 45.856 192.916 47.464 192.356 49H188.924C188.076 46.424 187.284 43.704 186.548 40.84C185.828 37.976 185.188 35.152 184.628 32.368H188.684C188.844 33.312 189.02 34.296 189.212 35.32C189.404 36.328 189.604 37.344 189.812 38.368C190.02 39.392 190.228 40.384 190.436 41.344C190.66 42.304 190.884 43.192 191.108 44.008C191.396 43.224 191.676 42.392 191.948 41.512C192.22 40.632 192.484 39.752 192.74 38.872C192.996 37.992 193.228 37.144 193.436 36.328C193.66 35.512 193.86 34.784 194.036 34.144H197.228ZM208.826 49V32.368H220.058V35.512H212.57V38.776H219.218V41.848H212.57V45.856H220.61V49H208.826ZM228.925 49.216C228.013 49.216 227.101 49.184 226.189 49.12C225.293 49.072 224.357 48.944 223.381 48.736V32.608C224.149 32.464 224.989 32.36 225.901 32.296C226.813 32.216 227.661 32.176 228.445 32.176C229.501 32.176 230.469 32.256 231.349 32.416C232.245 32.56 233.013 32.816 233.653 33.184C234.293 33.552 234.789 34.04 235.141 34.648C235.509 35.24 235.693 35.976 235.693 36.856C235.693 38.184 235.053 39.232 233.773 40C234.829 40.4 235.549 40.944 235.933 41.632C236.317 42.32 236.509 43.096 236.509 43.96C236.509 45.704 235.869 47.016 234.589 47.896C233.325 48.776 231.437 49.216 228.925 49.216ZM227.029 41.752V46.048C227.301 46.08 227.597 46.104 227.917 46.12C228.237 46.136 228.589 46.144 228.973 46.144C230.093 46.144 230.997 45.984 231.685 45.664C232.373 45.344 232.717 44.752 232.717 43.888C232.717 43.12 232.429 42.576 231.853 42.256C231.277 41.92 230.453 41.752 229.381 41.752H227.029ZM227.029 38.896H228.853C230.005 38.896 230.829 38.752 231.325 38.464C231.821 38.16 232.069 37.68 232.069 37.024C232.069 36.352 231.813 35.88 231.301 35.608C230.789 35.336 230.037 35.2 229.045 35.2C228.725 35.2 228.381 35.208 228.013 35.224C227.645 35.224 227.317 35.24 227.029 35.272V38.896Z" fill="white"/>
<path d="M45.9 18C35.6287 18 27.225 26.4038 27.225 36.675V42.9H24.1125C23.287 42.9 22.4953 43.2279 21.9116 43.8116C21.3279 44.3953 21 45.187 21 46.0125V58.4625C21 59.288 21.3279 60.0797 21.9116 60.6634C22.4953 61.2471 23.287 61.575 24.1125 61.575H30.3375C31.163 61.575 31.9547 61.2471 32.5384 60.6634C33.1221 60.0797 33.45 59.288 33.45 58.4625V36.675C33.45 29.7652 38.9902 24.225 45.9 24.225C52.8097 24.225 58.35 29.7652 58.35 36.675V58.4625C58.35 59.288 58.6779 60.0797 59.2616 60.6634C59.8453 61.2471 60.637 61.575 61.4625 61.575H67.6875C68.513 61.575 69.3047 61.2471 69.8884 60.6634C70.4721 60.0797 70.8 59.288 70.8 58.4625V46.0125C70.8 45.187 70.4721 44.3953 69.8884 43.8116C69.3047 43.2279 68.513 42.9 67.6875 42.9H64.575V36.675C64.575 26.4038 56.1712 18 45.9 18Z" fill="#EA580C"/>
</svg>
