<svg fill="none" height="24" viewBox="0 0 24 24" width="24" xmlns="http://www.w3.org/2000/svg" xmlns:xlink="http://www.w3.org/1999/xlink"><clipPath id="a"><path d="m0 0h24v24h-24z"/></clipPath><g clip-path="url(#a)" fill="#ea2b2b"><path d="m12 19.9999c-4.41828 0-8-3.5817-8-8h-2c0 5.5229 4.47715 10 10 10zm0-15.99996c4.4183 0 8 3.58172 8 7.99996h2c0-5.52281-4.4772-9.99996-10-9.99996zm-8 7.99996c0-2.20938.89434-4.20801 2.34315-5.65682l-1.41422-1.41421c-1.80855 1.80855-2.92893 4.30992-2.92893 7.07103zm2.34315-5.65682c1.44881-1.44881 3.44743-2.34314 5.65685-2.34314v-2c-2.76115 0-5.26252 1.12038-7.07107 2.92893zm13.65685 5.65682c0 2.2095-.8943 4.2081-2.3431 5.6569l1.4142 1.4142c1.8085-1.8085 2.9289-4.3099 2.9289-7.0711zm-2.3431 5.6569c-1.4489 1.4488-3.4475 2.3431-5.6569 2.3431v2c2.7611 0 5.2625-1.1203 7.0711-2.9289z"/><path d="m6.34315 4.92886c-.39052-.39052-1.02369-.39052-1.41421 0-.39052.39053-.39052 1.02369 0 1.41422zm11.31375 14.14214c.3905.3905 1.0237.3905 1.4142 0s.3905-1.0237 0-1.4142zm-12.72796-12.72792 12.72796 12.72792 1.4142-1.4142-12.72795-12.72794z"/></g></svg>